<svg aria-hidden="true" style="position: absolute; width: 0; height: 0; overflow: hidden;"
    version="1.1" xmlns="http://www.w3.org/2000/svg" xmlns:xlink="http://www.w3.org/1999/xlink">
    <defs>
        <symbol id="laptop" viewBox="0 0 76 76">
            <path
                d="M37.988 45.079c7.782 0 14.09-6.309 14.09-14.09 0-7.783-6.308-14.091-14.09-14.091s-14.091 6.308-14.091 14.09 6.309 14.091 14.09 14.091Z"
                fill="#2F7E7A" stroke="#010101" stroke-width="0.25"></path>
            <path d="M37.988 38.974a7.986 7.986 0 1 0 0-15.972 7.986 7.986 0 0 0 0 15.973Z"
                fill="#FAFAFA" stroke="#010101" stroke-width="0.25"></path>
            <path
                d="M66.194 54.199H9.788a.993.993 0 0 1-.993-.993V16.45c0-.545.441-.993.993-.993h56.406c.545 0 .992.442.992.993v36.756a.997.997 0 0 1-.992.993Z"
                fill="#477D95" stroke="#010101" stroke-width="0.25" stroke-miterlimit="10"></path>
            <path
                d="M75.454 58.593H.527c-.257 0-.343-.355-.116-.478l7.839-4.32c.355-.197.754-.3 1.164-.3h56.994c.509 0 1.011.128 1.459.38l7.698 4.24c.233.117.147.478-.11.478Z"
                fill="#477D95" stroke="#010101" stroke-width="0.25" stroke-miterlimit="10"></path>
            <path
                d="M69.05 56.436H6.932l3.64-2.133H65.41l3.64 2.133ZM63.356 50.779h-50.73a.993.993 0 0 1-.993-.993V19.864c0-.545.441-.993.993-.993h50.73c.545 0 .993.442.993.993v29.928a.991.991 0 0 1-.993.987Z"
                fill="#D7F463" stroke="#010101" stroke-width="0.25" stroke-miterlimit="10"></path>
            <path
                d="M75.105 60.414H.876a.806.806 0 0 1-.803-.803v-.797c0-.441.362-.803.803-.803h74.23c.44 0 .802.362.802.803v.797a.806.806 0 0 1-.803.803Z"
                fill="#477D95" stroke="#010101" stroke-width="0.25" stroke-miterlimit="10"></path>
            <path
                d="m10.836 54.285 6.215.006-.595.41-6.404-.006.784-.41ZM18.608 54.297h3.322l-.46.41-3.42-.005.558-.405ZM22.696 54.297l3.297.006-.343.405h-3.39l.436-.41ZM26.76 54.303l3.266.006-.22.405-3.366-.006.32-.405ZM30.786 54.31h3.248l-.116.404h-3.334l.202-.405ZM34.788 54.315h3.218v.399H34.69l.098-.399ZM38.754 54.315l3.193.007.11.398h-3.285l-.018-.405ZM42.688 54.322h3.175l.215.398h-3.26l-.13-.398ZM46.6 54.328h3.15l.318.398-3.236-.006-.233-.392ZM50.478 54.328l3.126.006.423.392h-3.205l-.344-.398ZM54.328 54.334l3.1.006.528.392-3.18-.006-.448-.392ZM58.146 54.34h3.083l.625.392h-3.156l-.552-.392ZM62.369 54.34l3.052.006.742.392-3.132-.006-.662-.392ZM18.387 54.812l3.438.006-.478.435h-3.542l.582-.441ZM22.622 54.818h3.414l-.356.435H22.17l.453-.435ZM26.827 54.818h3.383l-.227.435h-3.487l.33-.435ZM30.994 54.824h3.365l-.11.43h-3.457l.202-.43ZM35.138 54.824h3.328l.012.43h-3.426l.086-.43ZM39.238 54.824l3.31.006.128.43-3.401-.007-.037-.429ZM43.314 54.83h3.279l.245.43H43.46l-.147-.43ZM47.353 54.83h3.254l.362.43h-3.346l-.27-.43ZM51.361 54.836h3.23l.472.423h-3.322l-.38-.423ZM55.345 54.836h3.206l.576.423h-3.292l-.49-.423ZM8.74 55.37h3.628l-.79.478H7.833l.907-.478ZM13.208 55.37h3.604l-.65.472-3.714.006.76-.478ZM19.294 55.37h4.113l-.448.472h-4.241l.576-.472ZM24.234 55.37h3.524l-.312.472H23.81l.423-.472ZM28.573 55.37h3.5l-.178.465-3.61.007.288-.472ZM32.888 55.37h3.47l-.056.465h-3.573l.16-.465ZM37.16 55.37l3.438.006.08.46H37.13l.031-.466ZM41.395 55.376h3.414l.202.46H41.5l-.104-.46ZM45.6 55.376h3.39l.324.453h-3.487l-.227-.453ZM49.774 55.376h3.358l.442.453h-3.457l-.343-.453ZM53.91 55.376h3.66l.57.453h-3.763l-.466-.453ZM60.052 55.376h3.291l.742.447-3.39.006-.643-.453ZM64.11 55.376h3.266l.852.447H64.87l-.76-.447ZM7.581 55.976h3.782l-.858.51-3.898.005.974-.515ZM12.24 55.976l3.744-.006-.704.515h-3.868l.827-.509ZM16.849 55.97h3.714l-.558.509h-3.83l.674-.509ZM21.42 55.97h3.684l-.41.503-3.8.006.527-.509ZM48.051 55.958l3.5-.006.417.496h-3.604l-.313-.49ZM52.36 55.952h3.47l.545.49-3.574.006-.44-.496ZM56.638 55.952h3.439l.668.484-3.543.006-.564-.49ZM60.873 55.952l3.414-.006.35.214-3.457.006-.307-.214Z"
                fill="#57B2AB" stroke="#010101" stroke-width="0.25" stroke-miterlimit="10"></path>
            <path d="m64.71 56.21.368.226h-3.512l-.325-.227" fill="#57B2AB"></path>
            <path d="m64.71 56.21.368.226h-3.512l-.325-.227" stroke="#010101" stroke-width="0.25"
                stroke-miterlimit="10"></path>
            <path
                d="M65.078 55.946h3.383l.913.484-3.481.006-.815-.49ZM47.506 56.448l-21.917.025.38-.503 21.255-.012.282.49ZM68.21 55.823l-8.286.006-.626-.453h8.054l.858.447ZM17.008 55.842l-9.15.006.906-.478h8.869l-.625.472ZM67.156 55.26h-6.742l-.613-.424 6.564.007.79.416ZM16.42 55.253H8.985l.84-.447 7.22.006-.625.441Z"
                fill="#57B2AB" stroke="#010101" stroke-width="0.25" stroke-miterlimit="10"></path>
            <path d="M38.343 18.08a.864.864 0 1 0 0-1.728.864.864 0 0 0 0 1.729Z" fill="#6D9BF5"
                stroke="#010101" stroke-width="0.25" stroke-miterlimit="10"></path>
            <path
                d="M26.729 42.989a.876.876 0 0 1-.877-.876V25.828c0-.484.392-.877.877-.877h22.53c.484 0 .876.393.876.877v16.29a.876.876 0 0 1-.876.877h-22.53v-.006Z"
                fill="#fff"></path>
            <path
                d="M49.253 25.031c.441 0 .797.356.797.797v16.29a.795.795 0 0 1-.797.797H26.729a.795.795 0 0 1-.797-.796V25.828c0-.441.355-.797.797-.797h22.524Zm0-.153H26.729a.947.947 0 0 0-.95.95v16.29c0 .528.422.95.95.95h22.53c.527 0 .95-.422.95-.95v-16.29a.956.956 0 0 0-.956-.95Z"
                fill="#000"></path>
            <path
                d="M50.11 27.158H25.87v-1.281c0-.497.405-.901.902-.901h22.432c.496 0 .9.404.9.9v1.282h.007Z"
                fill="#6D9BF5" stroke="#010101" stroke-width="0.25" stroke-miterlimit="10"></path>
            <path
                d="M47.782 29.818H28.2v.515h19.582v-.515ZM47.782 31.785H28.2v.515h19.582v-.515ZM47.782 38.392H28.2v.515h19.582v-.515ZM41.353 33.814H28.2v.515h13.153v-.515ZM44.564 40.544H31.411v.514h13.153v-.514Z"
                fill="#010101" stroke="#000" stroke-width="0.25" stroke-miterlimit="10"></path>
            <path
                d="M56.81 42.174H19.521v5.62H56.81v-5.62ZM36.07 39.428l.968.827a.574.574 0 0 0 .827-.085l.785-1.03L49.54 24.939l.895-1.152a.581.581 0 0 0-.135-.834l-1.195-.784-1.465-1-.962-.618a.58.58 0 0 0-.766.128l-.705.907-8.244 10.763a.57.57 0 0 1-.827.086l-3.929-3.371-.803-.699a.571.571 0 0 0-.76.006l-.803.724-1.274 1.127-1.153 1.036a.574.574 0 0 0 .019.87l1.201.993 7.434 6.307Z"
                fill="#1DA551" stroke="#010101" stroke-width="0.25" stroke-miterlimit="10"></path>
        </symbol>
        <symbol id="check">
            <circle cx="18" cy="18" r="18" fill="#6EE09A"></circle>
            <path fill="#6EE09A" d="M6 6h24v24H6z"></path>
            <path
                d="m15.582 26.129.83.747a.476.476 0 0 0 .71-.078l.672-.93 9.337-12.823.767-1.04a.543.543 0 0 0-.116-.753l-1.024-.709-1.256-.902-.825-.559a.48.48 0 0 0-.657.116l-.604.82-7.067 9.718a.473.473 0 0 1-.709.078l-3.368-3.044-.688-.631a.471.471 0 0 0-.652.005l-.688.653-1.093 1.019-.987.935a.536.536 0 0 0 .015.786l1.03.897 6.373 5.695Z"
                fill="#23C461" stroke="#010101" stroke-width="0.25" stroke-miterlimit="10"></path>

        </symbol>
    </defs>
</svg>  